<?xml version="1.0"?>
<svg xmlns="http://www.w3.org/2000/svg" viewBox="0 0 50 50" width="50px" height="50px">
    <path style="line-height:normal;text-indent:0;text-align:start;text-decoration-line:none;text-decoration-style:solid;text-decoration-color:#000;text-transform:none;block-progression:tb;isolation:auto;mix-blend-mode:normal" d="M 24.984375 1.9863281 A 1.0001 1.0001 0 0 0 24 3 L 24 31.585938 L 17.707031 25.292969 A 1.0001 1.0001 0 0 0 16.990234 24.990234 A 1.0001 1.0001 0 0 0 16.292969 26.707031 L 24.292969 34.707031 A 1.0001 1.0001 0 0 0 25.707031 34.707031 L 33.707031 26.707031 A 1.0001 1.0001 0 1 0 32.292969 25.292969 L 26 31.585938 L 26 3 A 1.0001 1.0001 0 0 0 24.984375 1.9863281 z M 32.974609 3.4902344 A 1.0001 1.0001 0 0 0 32.636719 5.4375 C 40.455171 8.4921642 46 16.088067 46 25 C 46 36.609534 36.609534 46 25 46 C 13.390466 46 4 36.609534 4 25 C 4 16.088067 9.5448298 8.4921642 17.363281 5.4375 A 1.0001 1.0001 0 0 0 16.996094 3.5019531 A 1.0001 1.0001 0 0 0 16.636719 3.5761719 C 8.0691703 6.9235074 2 15.257933 2 25 C 2 37.690466 12.309534 48 25 48 C 37.690466 48 48 37.690466 48 25 C 48 15.257933 41.930829 6.9235076 33.363281 3.5761719 A 1.0001 1.0001 0 0 0 32.974609 3.4902344 z"  font-weight="400" font-family="sans-serif" white-space="normal" overflow="visible" stroke="black" stroke-width="2"/>
</svg>
